# Exported using wow.export v0.1.44
o DurotarRock01
mtllib durotarrock01.mtl
v -4.480840682983398 -1.6986005306243896 1.5961052179336548
v -6.208380222320557 -0.9119375944137573 -6.755352020263672
v -3.0681726932525635 -0.9355018734931946 -4.955624580383301
v 7.7839484214782715 0.18518981337547302 0.25288626551628113
v 1.7447737455368042 -0.9724482297897339 1.241076111793518
v 2.8682124614715576 -0.9474771618843079 -0.35505977272987366
v 1.7445428371429443 -0.9295433163642883 2.028852701187134
v 8.09938907623291 1.4148626327514648 1.8864320516586304
v 0.4559028446674347 -0.9225627183914185 -3.116300344467163
v 8.302403450012207 2.0624783039093018 -2.7238569259643555
v -2.0605485439300537 -0.9025754928588867 -4.552353858947754
v -3.0681726932525635 -0.9355018734931946 -4.955624580383301
v 11.459773063659668 2.285245180130005 -1.4271396398544312
v 11.887286186218262 2.332566976547241 1.0622646808624268
v 6.171499729156494 4.2249226570129395 -5.178780555725098
v -6.208380222320557 -0.9119375944137573 -6.755352020263672
v 9.796060562133789 4.297245502471924 -3.5530731678009033
v 9.45067310333252 5.2243266105651855 -3.2554569244384766
v -7.892971515655518 -0.8403781056404114 -2.1175804138183594
v 8.068534851074219 5.146002292633057 -2.1283631324768066
v 11.162347793579102 5.28358268737793 -2.863279104232788
v 14.439366340637207 4.924468994140625 1.8534117937088013
v 15.650211334228516 4.974953651428223 -0.6357404589653015
v 15.443195343017578 5.653284549713135 -0.5834180116653442
v 8.993921279907227 5.1984429359436035 1.5156710147857666
v 9.08056926727295 5.33216667175293 -0.9136848449707031
v 8.975457191467285 6.284571647644043 0.43244218826293945
v 9.349865913391113 6.348357200622559 -0.8186753392219543
v 14.411084175109863 4.825902462005615 -1.8803163766860962
v 14.27639102935791 5.498616695404053 -1.7233483791351318
v -7.844110488891602 -0.8333529829978943 2.6955466270446777
v 5.358962535858154 3.9756970405578613 4.972111225128174
v -3.0681729316711426 -0.935502290725708 4.67327356338501
v -1.2621089220046997 -0.8779081702232361 2.990738868713379
v 8.969278335571289 2.8083231449127197 2.851320505142212
v -6.208378791809082 -0.9119371771812439 6.961879253387451
v 9.82110595703125 4.464205741882324 3.78696870803833
v 8.983376502990723 4.484348297119141 4.280092716217041
v 11.513033866882324 4.638403415679932 3.3857696056365967
v 11.850838661193848 2.9556586742401123 0.5595020055770874
v 10.687512397766113 2.557316780090332 -1.097369909286499
v 11.758091926574707 4.506747245788574 -3.124892473220825
v -7.844110488891602 -0.8333529829978943 2.6955466270446777
v -6.208378791809082 -0.9119371771812439 6.961879253387451
v -3.0681729316711426 -0.935502290725708 4.67327356338501
v -1.2621089220046997 -0.8779081702232361 2.990738868713379
v 1.7447737455368042 -0.9724482297897339 1.241076111793518
v 1.7445428371429443 -0.9295433163642883 2.028852701187134
v 2.8682124614715576 -0.9474771618843079 -0.35505977272987366
v 0.4559028446674347 -0.9225627183914185 -3.116300344467163
v -2.0605485439300537 -0.9025754928588867 -4.552353858947754
v -7.892971515655518 -0.8403781056404114 -2.1175804138183594
vn -0.7330895066261292 -0.6186477541923523 0.28258568048477173
vn -0.2110273689031601 -0.12568862736225128 -0.969365656375885
vn -0.11441970616579056 -0.14265437424182892 -0.983136773109436
vn -0.41364866495132446 -0.7321671843528748 0.5411339998245239
vn -0.5288358926773071 -0.5680699944496155 0.630578339099884
vn -0.6584588885307312 -0.7131662964820862 -0.24046990275382996
vn -0.17976535856723785 -0.2100997120141983 0.9610111713409424
vn -0.028363339602947235 -0.06964175403118134 0.997168779373169
vn -0.15928848087787628 -0.1994980424642563 -0.9668648838996887
vn 0.017817817628383636 -0.036967888474464417 -0.9991576075553894
vn -0.16952398419380188 -0.18987002968788147 -0.9670630693435669
vn -0.11441970616579056 -0.14265437424182892 -0.983136773109436
vn 0.18889839947223663 -0.011429165489971638 -0.981930136680603
vn 0.2650494873523712 -0.08315843343734741 0.9606422185897827
vn 0.08399305492639542 0.08427049219608307 -0.9928966164588928
vn -0.2110273689031601 -0.12568862736225128 -0.969365656375885
vn 0.05419900268316269 0.011113898828625679 -0.998468279838562
vn 0.21917086839675903 0.174566388130188 -0.9599430561065674
vn -0.09905952960252762 0.2626931667327881 -0.9597809910774231
vn 0.338772714138031 0.317629873752594 -0.8856321573257446
vn 0.20991560816764832 0.1539580225944519 -0.9655218124389648
vn 0.15454217791557312 0.016011854633688927 0.9878564476966858
vn 0.5720778703689575 -0.36652031540870667 -0.7337504625320435
vn 0.8083943128585815 0.4419953525066376 -0.3887656331062317
vn 0.3965143859386444 0.28526267409324646 0.872583270072937
vn 0.8976080417633057 0.36466434597969055 -0.24762825667858124
vn 0.5140376687049866 0.27827367186546326 0.8113747835159302
vn 0.4500981867313385 0.2200186848640442 -0.865449845790863
vn 0.09427636861801147 -0.010801758617162704 -0.9954874515533447
vn 0.2692052721977234 0.18207138776779175 -0.9457159042358398
vn -0.1668483465909958 0.17741897702217102 0.9698887467384338
vn 0.07679999619722366 0.08697577565908432 0.9932456612586975
vn -0.10558174550533295 -0.160162553191185 0.981427788734436
vn -0.10508985072374344 -0.14034852385520935 0.9845092296600342
vn 0.002898125210776925 -0.05506101995706558 0.9984787702560425
vn -0.17512574791908264 -0.11430838704109192 0.9778878092765808
vn 0.12584178149700165 0.06295490264892578 0.9900507926940918
vn 0.12456081807613373 0.06585641205310822 0.9900240302085876
vn 0.11096593737602234 0.05767790228128433 0.9921491146087646
vn 0.6146256327629089 -0.09911536425352097 0.7825672626495361
vn 0.07788225263357162 -0.04736334830522537 -0.9958368539810181
vn 0.046984218060970306 -0.011063735000789165 -0.9988343715667725
vn -0.1668483465909958 0.17741897702217102 0.9698887467384338
vn -0.17512574791908264 -0.11430838704109192 0.9778878092765808
vn -0.10558174550533295 -0.160162553191185 0.981427788734436
vn -0.10508985072374344 -0.14034852385520935 0.9845092296600342
vn -0.5288358926773071 -0.5680699944496155 0.630578339099884
vn -0.17976535856723785 -0.2100997120141983 0.9610111713409424
vn -0.6584588885307312 -0.7131662964820862 -0.24046990275382996
vn -0.15928848087787628 -0.1994980424642563 -0.9668648838996887
vn -0.16952398419380188 -0.18987002968788147 -0.9670630693435669
vn -0.09905952960252762 0.2626931667327881 -0.9597809910774231
vt 0.4457187354564667 0.4367518424987793
vt 0.9359871745109558 0.03896832466125488
vt 0.9318578243255615 0.35817670822143555
vt 0.43389227986335754 1.6335242986679077
vt 0.3014710545539856 1.7712801694869995
vt 0.5153594613075256 1.7632631063461304
vt 0.1959059089422226 1.7638962268829346
vt 0.21499069035053253 1.4642881155014038
vt 0.8853762149810791 1.766960620880127
vt 0.8327869772911072 1.2489235401153564
vt 1.0778127908706665 1.7718507051467896
vt 1.131852626800537 1.7536898851394653
vt 0.6590219140052795 1.3033514022827148
vt 0.3254322111606598 1.2937909364700317
vt 1.161755919456482 0.7642509937286377
vt 1.3730230331420898 1.6839700937271118
vt 0.9439049363136292 0.9245188236236572
vt 0.9040230512619019 0.5764248371124268
vt 0.7515437602996826 1.7804532051086426
vt 0.7529881596565247 0.40082991123199463
vt 0.8514697551727295 0.5442609190940857
vt 0.21941520273685455 0.9245995879173279
vt 0.5529711246490479 0.8265198469161987
vt 0.5459596514701843 0.8347606658935547
vt 0.2646735608577728 0.5848351716995239
vt 0.5902165770530701 0.3560173511505127
vt 0.4098302125930786 0.45902812480926514
vt 0.5774847865104675 0.42752158641815186
vt 0.7197491526603699 0.8454113602638245
vt 0.6987147331237793 0.6998500823974609
vt 0.10656621307134628 1.779082179069519
vt -0.1985025703907013 1.0325827598571777
vt -0.1584567427635193 1.7808537483215332
vt 0.06700945645570755 1.764961838722229
vt 0.08569179475307465 1.2426350116729736
vt -0.465138703584671 1.6563994884490967
vt -0.03968893364071846 0.9337278604507446
vt -0.10576949268579483 0.9330341219902039
vt 0.014073317870497704 0.9198747873306274
vt 0.39280426502227783 1.1802340745925903
vt 0.6148314476013184 1.2590783834457397
vt 0.8865271210670471 0.8330684900283813
vt 0.24284109473228455 0.17096877098083496
vt 0.019843310117721558 0.4373188614845276
vt 0.28876474499702454 0.6378012895584106
vt 0.4663064777851105 0.7388185262680054
vt 0.6121166944503784 0.7545979022979736
vt 0.5585365891456604 0.7752528786659241
vt 0.7594988346099854 0.8020328283309937
vt 0.9383935928344727 0.709145188331604
vt 0.9412650465965271 0.4534658193588257
vt 0.5626583099365234 0.027420639991760254
g Geoset0
s 1
usemtl mat_durotarrock02
f 1/1/1 2/2/2 3/3/3
f 4/4/4 5/5/5 6/6/6
f 4/4/4 7/7/7 5/5/5
f 7/7/7 4/4/4 8/8/8
f 6/6/6 9/9/9 4/4/4
f 10/10/10 11/11/11 12/12/12
f 10/10/10 9/9/9 11/11/11
f 13/13/13 9/9/9 10/10/10
f 4/4/4 9/9/9 13/13/13
f 13/13/13 14/14/14 4/4/4
f 8/8/8 4/4/4 14/14/14
f 15/15/15 12/12/12 16/16/16
f 12/12/12 15/15/15 10/10/10
f 17/17/17 10/10/10 15/15/15
f 15/15/15 18/18/18 17/17/17
f 19/19/19 15/15/15 16/16/16
f 19/19/19 20/20/20 15/15/15
f 20/20/20 18/18/18 15/15/15
f 20/20/20 21/21/21 18/18/18
f 21/21/21 17/17/17 18/18/18
f 22/22/22 23/23/23 24/24/24
f 24/24/24 25/25/25 22/22/22
f 25/25/25 24/24/24 26/26/26
f 26/26/26 27/27/27 25/25/25
f 27/27/27 26/26/26 28/28/28
f 29/29/29 24/24/24 23/23/23
f 24/24/24 29/29/29 30/30/30
f 30/30/30 26/26/26 24/24/24
f 26/26/26 30/30/30 20/20/20
f 20/20/20 28/28/28 26/26/26
f 20/20/20 19/19/19 28/28/28
f 27/27/27 28/28/28 19/19/19
f 19/19/19 31/31/31 27/27/27
f 31/31/31 25/25/25 27/27/27
f 31/31/31 32/32/32 25/25/25
f 33/33/33 34/34/34 35/35/35
f 35/35/35 32/32/32 33/33/33
f 32/32/32 36/36/36 33/33/33
f 31/31/31 36/36/36 32/32/32
f 37/37/37 38/38/38 35/35/35
f 32/32/32 35/35/35 38/38/38
f 38/38/38 25/25/25 32/32/32
f 25/25/25 38/38/38 37/37/37
f 25/25/25 37/37/37 39/39/39
f 39/39/39 22/22/22 25/25/25
f 37/37/37 35/35/35 39/39/39
f 39/39/39 35/35/35 22/22/22
f 40/40/40 22/22/22 35/35/35
f 22/22/22 40/40/40 23/23/23
f 41/41/41 23/23/23 40/40/40
f 23/23/23 41/41/41 29/29/29
f 42/42/42 29/29/29 41/41/41
f 42/42/42 30/30/30 29/29/29
f 30/30/30 42/42/42 21/21/21
f 21/21/21 20/20/20 30/30/30
f 17/17/17 21/21/21 42/42/42
f 42/42/42 10/10/10 17/17/17
f 41/41/41 10/10/10 42/42/42
f 13/13/13 10/10/10 41/41/41
f 40/40/40 13/13/13 41/41/41
f 13/13/13 40/40/40 14/14/14
f 35/35/35 14/14/14 40/40/40
f 14/14/14 35/35/35 8/8/8
f 8/8/8 35/35/35 34/34/34
f 8/8/8 34/34/34 7/7/7
f 43/43/43 1/1/1 44/44/44
f 1/1/1 45/45/45 44/44/44
f 45/45/45 1/1/1 46/46/46
f 1/1/1 47/47/47 48/48/48
f 1/1/1 48/48/48 46/46/46
f 1/1/1 49/49/49 47/47/47
f 49/49/49 1/1/1 50/50/50
f 1/1/1 51/51/51 50/50/50
f 1/1/1 3/3/3 51/51/51
f 52/52/52 1/1/1 43/43/43
f 52/52/52 2/2/2 1/1/1