# Exported using wow.export v0.1.44
o DurotarCliffRock06
mtllib durotarcliffrock06.mtl
v -33.20933532714844 6.41547966003418 -2.6527886390686035
v -21.981307983398438 8.011200904846191 -33.040828704833984
v -27.524499893188477 0.6586583256721497 -11.624063491821289
v 20.634550094604492 -1.9849107265472412 -22.392824172973633
v 7.923325538635254 -10.019665718078613 -17.627403259277344
v 8.934111595153809 -6.4287590980529785 -25.199331283569336
v 38.70854568481445 1.873626947402954 3.813523530960083
v 11.336859703063965 6.145827770233154 -40.17973327636719
v -5.103566646575928 1.9701521396636963 -32.660945892333984
v -10.473902702331543 -11.664931297302246 -6.86518669128418
v -13.944084167480469 -11.580975532531738 10.283456802368164
v 2.996232271194458 -22.899728775024414 -4.214297294616699
v -0.4168779253959656 -27.363388061523438 16.29636001586914
v 16.328798294067383 -21.25438117980957 11.099974632263184
v 0.12927304208278656 -17.543569564819336 19.67080307006836
v 21.188081741333008 -16.7467098236084 2.757646322250366
v 21.687744140625 -16.629621505737305 -2.0880510807037354
v 23.853357315063477 -6.538914203643799 -0.2403605580329895
v 23.184423446655273 -5.718116283416748 9.233609199523926
v 14.948383331298828 -12.070725440979004 19.30260467529297
v -0.2136562019586563 -14.154542922973633 27.78739356994629
v -28.207849502563477 2.5101609230041504 14.051339149475098
v 15.772550582885742 9.228279113769531 21.301504135131836
v -0.7167815566062927 -1.0674067735671997 34.689666748046875
v -2.6002564430236816 10.372615814208984 38.773414611816406
v -12.511682510375977 16.037517547607422 35.166263580322266
v -3.8781471252441406 23.81900978088379 44.54423141479492
v -13.900677680969238 23.816125869750977 36.54678726196289
v -2.6644680500030518 24.797250747680664 37.11146926879883
v 8.916637420654297 13.399972915649414 36.732662200927734
v 39.79056930541992 12.955673217773438 10.227269172668457
v 36.56168746948242 9.395851135253906 -12.187901496887207
v 44.239688873291016 21.011341094970703 -1.8372859954833984
v 36.69379806518555 20.07493019104004 21.838645935058594
v 10.374216079711914 22.778650283813477 40.78739929199219
v 12.506643295288086 24.8590087890625 17.857315063476562
v 40.2680778503418 24.5190372467041 -2.557816743850708
v 43.80144500732422 19.56571388244629 -19.91971206665039
v 20.6213321685791 7.780046463012695 -34.5816535949707
v 19.61429786682129 21.050386428833008 -23.685335159301758
v 14.474345207214355 24.819395065307617 -3.0852272510528564
v 22.00312614440918 16.545547485351562 -41.12529754638672
v 12.566433906555176 11.654613494873047 -47.47298049926758
v -2.7725913524627686 7.052426338195801 -41.5556755065918
v 11.299306869506836 19.51297378540039 -41.018123626708984
v -0.6926882863044739 15.872180938720703 -49.68119812011719
v -25.785436630249023 18.20547103881836 -37.203155517578125
v -5.298540115356445 20.70572853088379 -28.064594268798828
v 4.594757556915283 24.944419860839844 -4.367506504058838
v -41.54767608642578 15.191296577453613 -15.880702018737793
v -34.543853759765625 16.324180603027344 10.029221534729004
v -35.823062896728516 20.169666290283203 -15.220417022705078
v -13.327879905700684 24.501602172851562 13.31605339050293
v -10.646684646606445 23.070693969726562 -10.200352668762207
vn -0.9659404754638672 -0.24623043835163116 0.07955822348594666
vn -0.6199566721916199 -0.43003934621810913 -0.6562925577163696
vn -0.9013099670410156 -0.3789825737476349 -0.20979176461696625
vn 0.795634925365448 -0.37591737508773804 -0.47502753138542175
vn 0.37665459513664246 -0.4931722581386566 -0.7841635346412659
vn 0.354866087436676 -0.5558330416679382 -0.7517443895339966
vn 0.950937032699585 -0.294156014919281 0.09586948156356812
vn 0.4998587667942047 -0.4327700436115265 -0.7502341270446777
vn -0.20560914278030396 -0.5996385216712952 -0.7734071016311646
vn -0.742914080619812 -0.49819326400756836 -0.4470817744731903
vn -0.9181298613548279 -0.37101539969444275 0.13923031091690063
vn -0.21881571412086487 -0.7039754986763 -0.6756760478019714
vn -0.4951460063457489 -0.8186159729957581 0.29102981090545654
vn 0.8627529740333557 -0.47510483860969543 0.17301060259342194
vn -0.44643914699554443 -0.3508153259754181 0.8231772184371948
vn 0.9645786285400391 -0.26269060373306274 0.024117913097143173
vn 0.9283784627914429 -0.27727943658828735 -0.2474459409713745
vn 0.9306092262268066 -0.27222248911857605 -0.24466575682163239
vn 0.9051519632339478 -0.2240743786096573 0.36123475432395935
vn 0.649703323841095 0.006240525748580694 0.7601622343063354
vn -0.22774720191955566 -0.4750465154647827 0.8499776721000671
vn -0.945681631565094 -0.13621585071086884 0.29518043994903564
vn 0.5966566801071167 -0.37746670842170715 0.7081805467605591
vn 0.027571046724915504 -0.1443592756986618 0.9891411662101746
vn -0.2588101625442505 -0.17159005999565125 0.9505651593208313
vn -0.7831751704216003 -0.08396576344966888 0.6161057949066162
vn -0.35142096877098083 0.4807080328464508 0.8033822774887085
vn -0.7574722766876221 0.44507327675819397 0.47764578461647034
vn -0.08387289196252823 0.9575903415679932 0.2756556570529938
vn 0.40834617614746094 -0.43718528747558594 0.8013254404067993
vn 0.9404236078262329 -0.14611904323101044 0.30700594186782837
vn 0.8976724147796631 -0.23495742678642273 -0.37279918789863586
vn 0.993837296962738 0.10850687325000763 0.02266438864171505
vn 0.8449236154556274 0.1819915622472763 0.5029743313789368
vn 0.3633210062980652 0.4984302222728729 0.7871246337890625
vn 0.11528682708740234 0.9695727825164795 0.215957373380661
vn 0.705537736415863 0.7084906101226807 0.016046788543462753
vn 0.9455835819244385 0.10603779554367065 -0.30761614441871643
vn 0.785656750202179 -0.27268871665000916 -0.555323600769043
vn 0.3194332718849182 0.8866878747940063 -0.3342858552932739
vn 0.059657514095306396 0.9940395951271057 -0.09124866873025894
vn 0.7565218210220337 0.2573316693305969 -0.601211428642273
vn 0.5816951990127563 -0.14566345512866974 -0.8002579808235168
vn -0.041636623442173004 -0.4809163808822632 -0.8757772445678711
vn 0.36570605635643005 0.7289080619812012 -0.578750491142273
vn -0.037862103432416916 0.368085116147995 -0.929020881652832
vn -0.6183693408966064 0.42769020795822144 -0.6593181490898132
vn -0.11110392212867737 0.9487692713737488 -0.2957918047904968
vn -0.025294043123722076 0.9971928596496582 -0.07047449052333832
vn -0.997356116771698 -0.002482085721567273 -0.07262694090604782
vn -0.9105221629142761 0.12110573798418045 0.395326167345047
vn -0.8270354270935059 0.5620954036712646 -0.00782393291592598
vn -0.4769796133041382 0.8709447979927063 0.11809148639440536
vn -0.21832045912742615 0.9673858284950256 -0.12845547497272491
vt 2.1031064987182617 0.5363250374794006
vt 1.8056806325912476 0.04270470142364502
vt 1.943939447402954 0.37876635789871216
vt -0.11017322540283203 0.1224520206451416
vt 0.46648406982421875 0.20945847034454346
vt 0.4544079899787903 0.09352868795394897
vt -1.1177150011062622 0.5059492588043213
vt 0.38260942697525024 -0.1297922134399414
vt 1.0849748849868774 0.01162731647491455
vt 1.2195510864257812 0.4082220196723938
vt 1.2544443607330322 0.6829731464385986
vt 0.6631900072097778 0.41228169202804565
vt 0.6971111297607422 0.7339801788330078
vt -0.04556077718734741 0.6307798027992249
vt 0.595567524433136 0.7979738116264343
vt -0.22859197854995728 0.4971696138381958
vt -0.21781980991363525 0.42054951190948486
vt -0.3823211193084717 0.4581282138824463
vt -0.42284005880355835 0.6086845397949219
vt -0.0914047360420227 0.7729803323745728
vt 0.5358948111534119 0.9298663139343262
vt 1.7859011888504028 0.7843496799468994
vt -0.2586626410484314 0.8290930986404419
vt 0.43864965438842773 1.0549755096435547
vt 0.4314369261264801 1.1363329887390137
vt 0.8665709495544434 1.1041948795318604
vt 0.37456297874450684 1.24552321434021
vt 0.8761844635009766 1.1378374099731445
vt 0.3668050169944763 1.1281969547271729
vt -0.08355188369750977 1.087918996810913
vt -1.271131157875061 0.6181581616401672
vt -0.9522554874420166 0.2683846354484558
vt -1.4294971227645874 0.43134599924087524
vt -1.25294828414917 0.8142068386077881
vt -0.22796714305877686 1.1604255437850952
vt -0.17502975463867188 0.8001433610916138
vt -1.2669497728347778 0.43134605884552
vt -1.2764954566955566 0.14714264869689941
vt -0.07843881845474243 -0.05637860298156738
vt -0.18199783563613892 0.13239061832427979
vt -0.11694872379302979 0.4686638116836548
vt -0.14251935482025146 -0.15047669410705566
vt 0.3483526110649109 -0.23937702178955078
vt 1.0151574611663818 -0.12549448013305664
vt 0.31686562299728394 -0.12638068199157715
vt 0.9306949377059937 -0.2455230951309204
vt 1.9480409622192383 -0.0032494068145751953
vt 0.9590815901756287 0.10704547166824341
vt 0.3309752941131592 0.4660515785217285
vt 2.5179970264434814 0.35459303855895996
vt 2.020139694213867 0.7494905591011047
vt 2.231353998184204 0.3610367774963379
vt 1.008265495300293 0.7738608121871948
vt 1.0600889921188354 0.399106502532959
g Geoset0
s 1
usemtl mat_durotarrocknew01
f 1/1/1 2/2/2 3/3/3
f 4/4/4 5/5/5 6/6/6
f 4/4/4 7/7/7 5/5/5
f 4/4/4 6/6/6 8/8/8
f 9/9/9 8/8/8 6/6/6
f 9/9/9 6/6/6 5/5/5
f 5/5/5 3/3/3 9/9/9
f 3/3/3 5/5/5 10/10/10
f 3/3/3 10/10/10 11/11/11
f 10/10/10 12/12/12 11/11/11
f 11/11/11 12/12/12 13/13/13
f 14/14/14 13/13/13 12/12/12
f 14/14/14 15/15/15 13/13/13
f 10/10/10 5/5/5 12/12/12
f 16/16/16 14/14/14 12/12/12
f 17/17/17 16/16/16 12/12/12
f 12/12/12 5/5/5 17/17/17
f 17/17/17 5/5/5 18/18/18
f 18/18/18 5/5/5 7/7/7
f 13/13/13 15/15/15 11/11/11
f 18/18/18 16/16/16 17/17/17
f 18/18/18 19/19/19 16/16/16
f 19/19/19 14/14/14 16/16/16
f 19/19/19 20/20/20 14/14/14
f 20/20/20 15/15/15 14/14/14
f 20/20/20 21/21/21 15/15/15
f 21/21/21 11/11/11 15/15/15
f 22/22/22 11/11/11 21/21/21
f 11/11/11 22/22/22 3/3/3
f 1/1/1 3/3/3 22/22/22
f 19/19/19 21/21/21 20/20/20
f 7/7/7 19/19/19 18/18/18
f 19/19/19 7/7/7 23/23/23
f 21/21/21 19/19/19 23/23/23
f 23/23/23 24/24/24 21/21/21
f 22/22/22 21/21/21 24/24/24
f 22/22/22 24/24/24 25/25/25
f 25/25/25 26/26/26 22/22/22
f 27/27/27 26/26/26 25/25/25
f 27/27/27 28/28/28 26/26/26
f 28/28/28 27/27/27 29/29/29
f 27/27/27 25/25/25 30/30/30
f 25/25/25 23/23/23 30/30/30
f 23/23/23 25/25/25 24/24/24
f 31/31/31 30/30/30 23/23/23
f 31/31/31 23/23/23 7/7/7
f 32/32/32 7/7/7 4/4/4
f 33/33/33 7/7/7 32/32/32
f 33/33/33 31/31/31 7/7/7
f 33/33/33 34/34/34 31/31/31
f 31/31/31 34/34/34 30/30/30
f 34/34/34 35/35/35 30/30/30
f 27/27/27 30/30/30 35/35/35
f 35/35/35 29/29/29 27/27/27
f 29/29/29 35/35/35 36/36/36
f 34/34/34 36/36/36 35/35/35
f 34/34/34 37/37/37 36/36/36
f 33/33/33 37/37/37 34/34/34
f 33/33/33 38/38/38 37/37/37
f 33/33/33 32/32/32 38/38/38
f 32/32/32 39/39/39 38/38/38
f 32/32/32 4/4/4 39/39/39
f 8/8/8 39/39/39 4/4/4
f 37/37/37 40/40/40 41/41/41
f 38/38/38 40/40/40 37/37/37
f 38/38/38 42/42/42 40/40/40
f 38/38/38 39/39/39 42/42/42
f 43/43/43 42/42/42 39/39/39
f 43/43/43 39/39/39 8/8/8
f 43/43/43 8/8/8 44/44/44
f 8/8/8 9/9/9 44/44/44
f 2/2/2 44/44/44 9/9/9
f 2/2/2 9/9/9 3/3/3
f 45/45/45 40/40/40 42/42/42
f 42/42/42 43/43/43 45/45/45
f 46/46/46 45/45/45 43/43/43
f 43/43/43 44/44/44 46/46/46
f 47/47/47 46/46/46 44/44/44
f 2/2/2 47/47/47 44/44/44
f 45/45/45 46/46/46 48/48/48
f 47/47/47 48/48/48 46/46/46
f 49/49/49 40/40/40 45/45/45
f 49/49/49 45/45/45 48/48/48
f 49/49/49 41/41/41 40/40/40
f 49/49/49 29/29/29 36/36/36
f 49/49/49 36/36/36 41/41/41
f 37/37/37 41/41/41 36/36/36
f 50/50/50 51/51/51 52/52/52
f 50/50/50 1/1/1 51/51/51
f 1/1/1 26/26/26 51/51/51
f 1/1/1 22/22/22 26/26/26
f 52/52/52 53/53/53 54/54/54
f 51/51/51 53/53/53 52/52/52
f 51/51/51 28/28/28 53/53/53
f 51/51/51 26/26/26 28/28/28
f 29/29/29 53/53/53 28/28/28
f 49/49/49 53/53/53 29/29/29
f 49/49/49 54/54/54 53/53/53
f 49/49/49 48/48/48 54/54/54
f 52/52/52 54/54/54 48/48/48
f 47/47/47 52/52/52 48/48/48
f 50/50/50 52/52/52 47/47/47
f 50/50/50 47/47/47 2/2/2
f 50/50/50 2/2/2 1/1/1