# Exported using wow.export v0.1.44
o DurotarCliffRock05
mtllib durotarcliffrock05.mtl
v -30.515411376953125 20.952037811279297 5.322575569152832
v -25.736370086669922 17.269437789916992 24.266216278076172
v -25.304746627807617 21.785442352294922 5.059234142303467
v -30.515411376953125 20.952037811279297 5.322575569152832
v -26.90660858154297 10.376138687133789 20.565792083740234
v -25.736370086669922 17.269437789916992 24.266216278076172
v -24.16361427307129 1.7748944759368896 0.8719008564949036
v -27.276521682739258 11.384526252746582 -6.698175430297852
v -18.04888153076172 8.371561050415039 -22.038400650024414
v 1.61870539188385 20.399986267089844 -50.931922912597656
v 16.323211669921875 20.810453414916992 -44.57804870605469
v 18.881166458129883 12.094415664672852 -42.851261138916016
v 38.232608795166016 17.269437789916992 -20.636310577392578
v 43.541404724121094 7.357036113739014 -6.698195934295654
v 50.83411407470703 14.980409622192383 5.322580337524414
v 37.14838790893555 10.376138687133789 24.22985076904297
v 37.71236038208008 17.269437789916992 29.453996658325195
v 21.673826217651367 10.516263008117676 45.441951751708984
v 19.07254981994629 16.384180068969727 46.90799331665039
v 1.6187009811401367 12.382372856140137 47.524513244628906
v 21.14579200744629 6.398809909820557 29.855737686157227
v 34.54977798461914 1.7748945951461792 4.769413948059082
v 29.51613998413086 4.344071865081787 -22.038410186767578
v 1.6187037229537964 8.22039794921875 -43.280982971191406
v -15.643756866455078 15.61598014831543 -42.851253509521484
v -13.085800170898438 17.929624557495117 -44.578033447265625
v -26.256616592407227 23.241064071655273 -20.636306762695312
v -12.07646369934082 16.384180068969727 42.218204498291016
v -14.677736282348633 10.516263008117676 40.75217056274414
v 1.6187009811401367 9.522141456604004 40.1628532409668
v -14.14970588684082 0.5982257127761841 24.66792869567871
v 1.6186996698379517 -2.1684157848358154 25.777198791503906
v 1.6186949014663696 -17.723669052124023 19.725465774536133
v 15.327155113220215 -15.927300453186035 4.53455924987793
v 23.469797134399414 -20.185653686523438 -12.585800170898438
v 1.6186872720718384 -31.359230041503906 7.245448589324951
v 1.618683934211731 -41.52412033081055 -13.189435958862305
v -11.537613868713379 -16.339771270751953 2.984264373779297
v -12.834294319152832 -16.290515899658203 -6.8726067543029785
v 1.6186890602111816 -41.36130142211914 -22.415075302124023
v 1.6187018156051636 -1.4650198221206665 -32.004310607910156
v 1.6186933517456055 -22.836118698120117 -28.992034912109375
v 37.71236038208008 17.269437789916992 29.453996658325195
v 20.023584365844727 18.436267852783203 23.62394142150879
v 19.07254981994629 16.384180068969727 46.90799331665039
v 45.623451232910156 17.315593719482422 5.05924129486084
v 50.83411407470703 14.980409622192383 5.322580337524414
v 14.579556465148926 19.74891471862793 4.353579044342041
v 38.232608795166016 17.269437789916992 -20.636310577392578
v 20.72611427307129 18.69505500793457 -21.27860450744629
v 1.6187057495117188 21.319690704345703 -0.20320869982242584
v 1.6187028884887695 18.322738647460938 39.938018798828125
v 1.6187009811401367 12.382372856140137 47.524513244628906
v -12.07646369934082 16.384180068969727 42.218204498291016
v -13.027493476867676 18.436267852783203 23.623937606811523
v -13.76486873626709 21.259904861450195 0.4560515582561493
v 16.323211669921875 20.810453414916992 -44.57804870605469
v 1.6187052726745605 25.18144989013672 -43.66542434692383
v -13.547737121582031 22.21661949157715 -21.278600692749023
v 1.61870539188385 20.399986267089844 -50.931922912597656
v -13.085800170898438 17.929624557495117 -44.578033447265625
v -26.256616592407227 23.241064071655273 -20.636306762695312
vn -0.9567896723747253 0.2825238108634949 0.0688028559088707
vn -0.9267294406890869 0.2815708518028259 0.24877779185771942
vn -0.1859712153673172 0.9589349627494812 0.21414577960968018
vn -0.9567896723747253 0.2825238108634949 0.0688028559088707
vn -0.9877343773841858 -0.10352735966444016 0.11688853055238724
vn -0.9267294406890869 0.2815708518028259 0.24877779185771942
vn -0.9872023463249207 -0.1591753214597702 -0.009731228463351727
vn -0.9913845062255859 -0.09941359609365463 -0.08528582006692886
vn -0.9457487463951111 -0.20675019919872284 -0.2506265938282013
vn -0.17610134184360504 0.2843402326107025 -0.9424112439155579
vn 0.8441669344902039 0.48152029514312744 -0.2356276661157608
vn 0.8200744390487671 -0.2239561527967453 -0.5266132950782776
vn 0.871301531791687 0.4430055022239685 -0.21113920211791992
vn 0.9676897525787354 -0.2425389587879181 -0.0689307376742363
vn 0.9978514909744263 0.06389549374580383 0.014481544494628906
vn 0.9304748177528381 -0.27462464570999146 0.24248281121253967
vn 0.8288964033126831 0.50127112865448 0.24831025302410126
vn 0.685824453830719 -0.4866601526737213 0.5411161780357361
vn 0.48882603645324707 0.6913477182388306 0.5320596098899841
vn -0.3021473288536072 -0.28451117873191833 0.909813404083252
vn 0.7101708650588989 -0.5417997241020203 0.44956687092781067
vn 0.9641554355621338 -0.25396740436553955 0.07684309780597687
vn 0.9215935468673706 -0.24073141813278198 -0.3044893443584442
vn -0.35176903009414673 -0.5110557079315186 -0.7842707633972168
vn -0.9302473664283752 -0.1395927518606186 -0.33934304118156433
vn -0.854654848575592 0.2716449499130249 -0.4424636960029602
vn -0.8025165796279907 0.5827293992042542 -0.1280372589826584
vn -0.7069839239120483 0.5499305129051208 0.44469115138053894
vn -0.8556758761405945 -0.22328895330429077 0.4668627977371216
vn -0.058282624930143356 -0.7331810593605042 0.6775313019752502
vn -0.8939869999885559 -0.29657164216041565 0.3359054923057556
vn -0.14878927171230316 -0.3157639801502228 0.9370991587638855
vn -0.13658076524734497 -0.44655224680900574 0.8842719197273254
vn 0.9278606176376343 -0.20856603980064392 0.30915194749832153
vn 0.9840747714042664 -0.17471180856227875 -0.03275088593363762
vn -0.3478887677192688 -0.6315604448318481 0.6928959488868713
vn -0.1466251164674759 -0.9718829393386841 0.18424077332019806
vn -0.9750270247459412 -0.1608535647392273 0.15312868356704712
vn -0.9882454872131348 -0.1404304802417755 -0.06041625514626503
vn -0.16889362037181854 -0.9399527311325073 -0.2965869903564453
vn -0.23678015172481537 -0.21994081139564514 -0.9463409781455994
vn -0.5761330127716064 -0.1744987964630127 -0.7985116839408875
vn 0.8288964033126831 0.50127112865448 0.24831025302410126
vn 0.271778404712677 0.954787015914917 0.12049170583486557
vn 0.48882603645324707 0.6913477182388306 0.5320596098899841
vn 0.7712741494178772 0.6364781856536865 0.005632449872791767
vn 0.9978514909744263 0.06389549374580383 0.014481544494628906
vn 0.4070194363594055 0.9130933284759521 0.02440798096358776
vn 0.871301531791687 0.4430055022239685 -0.21113920211791992
vn 0.48152726888656616 0.8748160600662231 0.05318241938948631
vn 0.21332789957523346 0.9683748483657837 0.12938833236694336
vn -0.11161372810602188 0.9217095375061035 0.3714752793312073
vn -0.3021473288536072 -0.28451117873191833 0.909813404083252
vn -0.7069839239120483 0.5499305129051208 0.44469115138053894
vn -0.22739391028881073 0.947842538356781 0.22335289418697357
vn 0.1647404134273529 0.9751293659210205 0.14826788008213043
vn 0.8441669344902039 0.48152029514312744 -0.2356276661157608
vn 0.015173131600022316 0.9803548455238342 -0.19665740430355072
vn -0.17871123552322388 0.9823429584503174 -0.05535908043384552
vn -0.17610134184360504 0.2843402326107025 -0.9424112439155579
vn -0.854654848575592 0.2716449499130249 -0.4424636960029602
vn -0.8025165796279907 0.5827293992042542 -0.1280372589826584
vt -1.2082781791687012 0.42438530921936035
vt -0.9883400201797485 0.1490858793258667
vt -1.000184416770935 0.4243853688240051
vt 0.4481499195098877 0.029744505882263184
vt 1.6367791891098022 0.16897046566009521
vt 2.3764724731445312 0.07396864891052246
vt 0.5266245007514954 0.3904365301132202
vt -0.7451500296592712 0.13592231273651123
vt -0.7312805652618408 0.4501974582672119
vt -4.9493889808654785 1.0049424171447754
vt -3.677670478820801 0.47852033376693726
vt -1.9684467315673828 0.5233386754989624
vt -1.804979920387268 0.04619389772415161
vt -0.7451500296592712 0.13592231273651123
vt 0.4481499195098877 0.029744505882263184
vt 1.6367791891098022 0.16897046566009521
vt 2.3764724731445312 0.07396864891052246
vt 3.3150830268859863 0.4987053871154785
vt 4.6443305015563965 0.4928492307662964
vt 5.7264180183410645 0.9833217263221741
vt 1.8199182748794556 0.5569857358932495
vt 0.5266245007514954 0.3904365301132202
vt -0.7312805652618408 0.4501974582672119
vt -2.5548019409179688 0.9854708909988403
vt -1.9684467315673828 0.5233386754989624
vt -3.677670478820801 0.47852033376693726
vt -1.804979920387268 0.04619389772415161
vt 4.6443305015563965 0.4928492307662964
vt 3.3150830268859863 0.4987053871154785
vt 3.8512156009674072 0.9959272742271423
vt 1.8199182748794556 0.5569857358932495
vt 2.6992082595825195 0.9988977909088135
vt 1.892650842666626 0.9968907833099365
vt 0.6817464828491211 0.742839515209198
vt 0.1293446123600006 0.7237731218338013
vt 0.7923704981803894 0.994152843952179
vt -0.18650785088539124 0.9887881875038147
vt 0.6872320771217346 0.7553015351295471
vt 0.13385498523712158 0.7199887037277222
vt -0.48408111929893494 0.9908047318458557
vt -0.9747779965400696 0.99413001537323
vt -0.6094481348991394 0.9916542768478394
vt 1.631770372390747 0.028629541397094727
vt 0.8933184146881104 0.12511670589447021
vt 0.8593275547027588 -0.20831036567687988
vt 1.972090482711792 0.37294721603393555
vt 2.208278179168701 0.36538952589035034
vt 0.6673060655593872 0.4055866003036499
vt 1.6813735961914062 0.7470278739929199
vt 0.9452288150787354 0.7689404487609863
vt 0.11997681856155396 0.4803740382194519
vt 0.1243126392364502 -0.09563636779785156
vt 0.17328032851219177 -0.2044994831085205
vt -0.42576658725738525 -0.1184241771697998
vt -0.47303909063339233 0.14908576011657715
vt -0.5158263444900513 0.48207032680511475
vt 0.757325291633606 1.106471061706543
vt 0.10975536704063416 1.104039192199707
vt -0.5032305717468262 0.7937962412834167
vt 0.15667098760604858 1.2083104848861694
vt -0.43265533447265625 1.1277985572814941
vt -1.0381643772125244 0.7937962412834167
g Geoset0
s 1
usemtl mat_durotarrocknew01
f 1/1/1 2/2/2 3/3/3
f 4/4/4 5/5/5 6/6/6
f 4/4/4 7/7/7 5/5/5
f 4/4/4 8/8/8 7/7/7
f 8/8/8 9/9/9 7/7/7
f 10/10/10 11/11/11 12/12/12
f 13/13/13 12/12/12 11/11/11
f 14/14/14 12/12/12 13/13/13
f 15/15/15 14/14/14 13/13/13
f 15/15/15 16/16/16 14/14/14
f 15/15/15 17/17/17 16/16/16
f 16/16/16 17/17/17 18/18/18
f 17/17/17 19/19/19 18/18/18
f 20/20/20 18/18/18 19/19/19
f 16/16/16 18/18/18 21/21/21
f 16/16/16 21/21/21 22/22/22
f 14/14/14 16/16/16 22/22/22
f 14/14/14 22/22/22 23/23/23
f 14/14/14 23/23/23 12/12/12
f 24/24/24 12/12/12 23/23/23
f 10/10/10 12/12/12 24/24/24
f 10/10/10 24/24/24 25/25/25
f 10/10/10 25/25/25 26/26/26
f 27/27/27 26/26/26 25/25/25
f 20/20/20 28/28/28 29/29/29
f 20/20/20 29/29/29 30/30/30
f 20/20/20 30/30/30 18/18/18
f 30/30/30 21/21/21 18/18/18
f 30/30/30 29/29/29 31/31/31
f 31/31/31 32/32/32 30/30/30
f 21/21/21 30/30/30 32/32/32
f 21/21/21 32/32/32 33/33/33
f 33/33/33 22/22/22 21/21/21
f 22/22/22 33/33/33 34/34/34
f 22/22/22 34/34/34 35/35/35
f 34/34/34 36/36/36 35/35/35
f 35/35/35 36/36/36 37/37/37
f 34/34/34 33/33/33 36/36/36
f 31/31/31 33/33/33 32/32/32
f 6/6/6 29/29/29 28/28/28
f 5/5/5 29/29/29 6/6/6
f 5/5/5 31/31/31 29/29/29
f 5/5/5 7/7/7 31/31/31
f 31/31/31 7/7/7 33/33/33
f 38/38/38 33/33/33 7/7/7
f 36/36/36 33/33/33 38/38/38
f 38/38/38 39/39/39 36/36/36
f 39/39/39 37/37/37 36/36/36
f 39/39/39 40/40/40 37/37/37
f 35/35/35 23/23/23 22/22/22
f 9/9/9 41/41/41 42/42/42
f 42/42/42 39/39/39 9/9/9
f 39/39/39 7/7/7 9/9/9
f 7/7/7 39/39/39 38/38/38
f 39/39/39 42/42/42 40/40/40
f 37/37/37 40/40/40 35/35/35
f 42/42/42 35/35/35 40/40/40
f 23/23/23 35/35/35 42/42/42
f 23/23/23 42/42/42 41/41/41
f 23/23/23 41/41/41 24/24/24
f 9/9/9 24/24/24 41/41/41
f 24/24/24 9/9/9 25/25/25
f 8/8/8 25/25/25 9/9/9
f 8/8/8 27/27/27 25/25/25
f 4/4/4 27/27/27 8/8/8
f 43/43/43 44/44/44 45/45/45
f 43/43/43 46/46/46 44/44/44
f 47/47/47 46/46/46 43/43/43
f 46/46/46 48/48/48 44/44/44
f 47/47/47 49/49/49 46/46/46
f 49/49/49 50/50/50 46/46/46
f 46/46/46 50/50/50 48/48/48
f 51/51/51 48/48/48 50/50/50
f 51/51/51 44/44/44 48/48/48
f 51/51/51 52/52/52 44/44/44
f 52/52/52 45/45/45 44/44/44
f 45/45/45 52/52/52 53/53/53
f 54/54/54 53/53/53 52/52/52
f 52/52/52 55/55/55 54/54/54
f 51/51/51 55/55/55 52/52/52
f 51/51/51 56/56/56 55/55/55
f 49/49/49 57/57/57 50/50/50
f 58/58/58 50/50/50 57/57/57
f 51/51/51 50/50/50 58/58/58
f 51/51/51 58/58/58 59/59/59
f 51/51/51 59/59/59 56/56/56
f 3/3/3 56/56/56 59/59/59
f 3/3/3 55/55/55 56/56/56
f 2/2/2 55/55/55 3/3/3
f 2/2/2 54/54/54 55/55/55
f 57/57/57 60/60/60 58/58/58
f 61/61/61 58/58/58 60/60/60
f 58/58/58 61/61/61 59/59/59
f 62/62/62 59/59/59 61/61/61
f 62/62/62 3/3/3 59/59/59
f 1/1/1 3/3/3 62/62/62