# Exported using wow.export v0.1.44
o DurotarRock02
mtllib durotarrock02.mtl
v -4.904223442077637 3.5906589031219482 -0.17068296670913696
v -13.55173397064209 0.5532006025314331 0.40493935346603394
v -4.823201656341553 3.3449535369873047 3.70961594581604
v 10.183362007141113 5.152099609375 2.51786732673645
v 11.279149055480957 6.100448131561279 3.0238869190216064
v 5.696800708770752 2.965632677078247 3.808081865310669
v 5.037235736846924 5.077255725860596 3.883683204650879
v -4.547914981842041 2.5101191997528076 4.517941474914551
v -13.776165962219238 -1.0574208498001099 3.9679346084594727
v -14.614778518676758 -0.7516411542892456 2.5061261653900146
v -20.85400390625 -1.8574172258377075 0.46833452582359314
v -13.855859756469727 -0.02577109821140766 -1.6748005151748657
v -20.58466148376465 -2.118290901184082 2.9450390338897705
v -13.485870361328125 -3.323624610900879 3.808082103729248
v -4.014967918395996 0.18623049557209015 3.697293996810913
v 4.606328010559082 2.1581778526306152 2.6199631690979004
v -20.71160316467285 -2.2297122478485107 -1.9993555545806885
v -14.479252815246582 -0.8899109363555908 -4.143553256988525
v -20.961336135864258 -4.382835388183594 1.6093413829803467
v -19.12936019897461 -2.221172571182251 2.4678776264190674
v -11.236599922180176 -4.139977931976318 2.6199638843536377
v -3.5204105377197266 -1.3135627508163452 -0.17722304165363312
v -14.159164428710938 -5.668601989746094 0.4502829611301422
v -20.030427932739258 -4.161451816558838 -1.0477639436721802
v -13.946409225463867 -4.320032596588135 -1.757645845413208
v 12.40906047821045 5.253459930419922 1.7173182964324951
v 11.598917007446289 4.877695560455322 -0.9619126915931702
v 11.576838493347168 6.086387634277344 -1.9144079685211182
v 7.632877826690674 1.4810973405838013 0.4502829909324646
v 6.659693717956543 2.4386026859283447 -1.7576453685760498
v -3.931515693664551 0.6408277750015259 -4.0484490394592285
v -14.188054084777832 -2.206552743911743 -3.9552700519561768
v 6.258921146392822 4.3985185623168945 -5.650111198425293
v -4.630494117736816 2.7605478763580322 -4.86456298828125
v 5.714951992034912 5.63012170791626 -3.287198305130005
v -4.842275619506836 3.4027953147888184 -3.2271153926849365
v 4.635547161102295 5.953958511352539 -1.7715059518814087
v 3.992448568344116 6.238467216491699 0.2921082079410553
v 11.405301094055176 6.470365047454834 0.5496360063552856
v 5.567573070526123 5.821885585784912 2.4352617263793945
vn -0.08562609553337097 0.9954327940940857 -0.04221026226878166
vn -0.1310676634311676 0.990418016910553 0.04351302236318588
vn -0.08416222780942917 0.9682881236076355 0.2352336347103119
vn 0.29627466201782227 -0.8739078044891357 0.38536539673805237
vn 0.6069628000259399 0.5184827446937561 0.6023054718971252
vn 0.25633785128593445 -0.7871455550193787 0.5609748363494873
vn 0.13698361814022064 0.8157557845115662 0.5619413256645203
vn -0.00578729435801506 0.21694985032081604 0.9761655926704407
vn -0.1749989241361618 0.765259861946106 0.6194778084754944
vn -0.09417895972728729 0.9770621657371521 0.19099710881710052
vn -0.38159963488578796 0.924034833908081 0.023266524076461792
vn -0.11963896453380585 0.9863058924674988 -0.11352193355560303
vn -0.6229615211486816 0.23393315076828003 0.7464544177055359
vn -0.21496883034706116 -0.8135315775871277 0.5403283834457397
vn 0.1143411174416542 -0.8753445148468018 0.46978509426116943
vn 0.1307937651872635 -0.9530854225158691 0.2729857563972473
vn -0.8373751044273376 0.22418314218521118 -0.4985426962375641
vn -0.2609511613845825 0.8343808054924011 -0.4855029881000519
vn -0.6024321913719177 -0.7698182463645935 0.21084432303905487
vn -0.24601256847381592 -0.912237286567688 0.3275682330131531
vn -0.02430013380944729 -0.9593117237091064 0.2813015580177307
vn 0.10981375724077225 -0.9933049082756042 -0.03586479648947716
vn -0.1323210597038269 -0.9895605444908142 0.05710580572485924
vn -0.4363735020160675 -0.8584127426147461 -0.2696399986743927
vn -0.061357174068689346 -0.9353682994842529 -0.34831228852272034
vn 0.9445666074752808 -0.2063819319009781 0.2553437054157257
vn 0.6740645170211792 -0.6705399751663208 -0.3098599910736084
vn 0.5620957016944885 0.802183985710144 -0.20136846601963043
vn 0.26935774087905884 -0.9576245546340942 0.10198816657066345
vn 0.16139164566993713 -0.9371101260185242 -0.30947911739349365
vn 0.021686013787984848 -0.8881078958511353 -0.4591231346130371
vn -0.24129199981689453 -0.7188534736633301 -0.6519415974617004
vn 0.4724433422088623 -0.24180395901203156 -0.847542405128479
vn -0.08308587223291397 0.6708580255508423 -0.736916720867157
vn 0.11470340192317963 0.971527099609375 -0.20731182396411896
vn -0.07908934354782104 0.9863927364349365 -0.1441328525543213
vn 0.09893602132797241 0.989848792552948 -0.10203470289707184
vn 0.06974401324987411 0.9972754716873169 0.024030257016420364
vn 0.34029507637023926 0.9402427673339844 0.011951977387070656
vn 0.12684045732021332 0.9786911010742188 0.1614781767129898
vt 0.3180261254310608 0.2619907259941101
vt 0.9879626631736755 0.6340147256851196
vt 0.2847147583961487 0.4592621326446533
vt -0.5617514848709106 0.47987622022628784
vt -0.5314716100692749 0.19474464654922485
vt -0.2045048624277115 0.6564540266990662
vt -0.11089319735765457 0.3646997809410095
vt 0.23327475786209106 0.6279822587966919
vt 0.8022762537002563 1.0633134841918945
vt 0.8678804636001587 0.9444472789764404
vt 1.1817692518234253 0.9540094137191772
vt 1.0704959630966187 0.5721150040626526
vt 1.1444249153137207 1.0993093252182007
vt 0.7356215715408325 1.2721049785614014
vt 0.14559024572372437 0.8579405546188354
vt -0.216407909989357 0.7679041028022766
vt 1.1718493700027466 0.9148955345153809
vt 0.8065698146820068 0.7803161144256592
vt 1.120717167854309 1.2513030767440796
vt 1.0620763301849365 1.115654468536377
vt 0.5852965116500854 1.3832734823226929
vt 0.07975226640701294 0.9451756477355957
vt 0.6994947195053101 1.4986649751663208
vt 1.0908277034759521 1.120933175086975
vt 0.7506020069122314 1.198311448097229
vt -0.7287411689758301 0.36135411262512207
vt -0.6420515775680542 0.31492823362350464
vt -0.5744489431381226 -0.08033740520477295
vt -0.48362404108047485 0.8923945426940918
vt -0.31471243500709534 0.5143486261367798
vt 0.16986209154129028 0.5852476358413696
vt 0.8204402923583984 0.9188289642333984
vt -0.24508200585842133 0.10508817434310913
vt 0.29430490732192993 0.20695507526397705
vt -0.028312746435403824 -0.36113858222961426
vt 0.32672756910324097 0.13524341583251953
vt -0.08528994023799896 -0.19304406642913818
vt -0.09605006128549576 -0.027536749839782715
vt -0.5331009030342102 0.005593776702880859
vt -0.13239489495754242 0.2031569480895996
g Geoset0
s 1
usemtl mat_durotarrock02
f 1/1/1 2/2/2 3/3/3
f 4/4/4 5/5/5 6/6/6
f 5/5/5 7/7/7 6/6/6
f 8/8/8 6/6/6 7/7/7
f 7/7/7 3/3/3 8/8/8
f 9/9/9 8/8/8 3/3/3
f 3/3/3 10/10/10 9/9/9
f 3/3/3 2/2/2 10/10/10
f 11/11/11 2/2/2 12/12/12
f 11/11/11 10/10/10 2/2/2
f 13/13/13 10/10/10 11/11/11
f 13/13/13 9/9/9 10/10/10
f 13/13/13 14/14/14 9/9/9
f 8/8/8 9/9/9 14/14/14
f 8/8/8 14/14/14 15/15/15
f 8/8/8 15/15/15 6/6/6
f 15/15/15 16/16/16 6/6/6
f 4/4/4 6/6/6 16/16/16
f 17/17/17 12/12/12 18/18/18
f 17/17/17 11/11/11 12/12/12
f 19/19/19 11/11/11 17/17/17
f 19/19/19 13/13/13 11/11/11
f 19/19/19 20/20/20 13/13/13
f 20/20/20 14/14/14 13/13/13
f 20/20/20 21/21/21 14/14/14
f 15/15/15 14/14/14 21/21/21
f 21/21/21 22/22/22 15/15/15
f 16/16/16 15/15/15 22/22/22
f 20/20/20 23/23/23 21/21/21
f 19/19/19 23/23/23 20/20/20
f 19/19/19 24/24/24 23/23/23
f 24/24/24 25/25/25 23/23/23
f 22/22/22 23/23/23 25/25/25
f 22/22/22 21/21/21 23/23/23
f 26/26/26 27/27/27 28/28/28
f 26/26/26 29/29/29 27/27/27
f 27/27/27 29/29/29 30/30/30
f 22/22/22 30/30/30 29/29/29
f 30/30/30 22/22/22 31/31/31
f 25/25/25 31/31/31 22/22/22
f 31/31/31 25/25/25 32/32/32
f 24/24/24 32/32/32 25/25/25
f 24/24/24 17/17/17 32/32/32
f 19/19/19 17/17/17 24/24/24
f 27/27/27 30/30/30 33/33/33
f 31/31/31 33/33/33 30/30/30
f 34/34/34 33/33/33 31/31/31
f 34/34/34 31/31/31 32/32/32
f 34/34/34 32/32/32 18/18/18
f 17/17/17 18/18/18 32/32/32
f 27/27/27 33/33/33 28/28/28
f 28/28/28 33/33/33 35/35/35
f 34/34/34 35/35/35 33/33/33
f 35/35/35 34/34/34 36/36/36
f 18/18/18 36/36/36 34/34/34
f 36/36/36 18/18/18 12/12/12
f 28/28/28 35/35/35 37/37/37
f 36/36/36 37/37/37 35/35/35
f 1/1/1 37/37/37 36/36/36
f 1/1/1 36/36/36 12/12/12
f 1/1/1 12/12/12 2/2/2
f 1/1/1 38/38/38 37/37/37
f 39/39/39 37/37/37 38/38/38
f 28/28/28 37/37/37 39/39/39
f 26/26/26 28/28/28 39/39/39
f 5/5/5 40/40/40 7/7/7
f 3/3/3 7/7/7 40/40/40
f 22/22/22 29/29/29 16/16/16
f 4/4/4 16/16/16 29/29/29
f 26/26/26 4/4/4 29/29/29
f 26/26/26 5/5/5 4/4/4
f 26/26/26 39/39/39 5/5/5
f 5/5/5 39/39/39 40/40/40
f 39/39/39 38/38/38 40/40/40
f 3/3/3 40/40/40 38/38/38
f 1/1/1 3/3/3 38/38/38