# Exported using wow.export v0.1.44
o DurotarCliffRock04
mtllib durotarcliffrock04.mtl
v -22.203947067260742 10.263402938842773 15.583014488220215
v -13.547645568847656 10.367974281311035 24.980579376220703
v -23.130050659179688 13.363994598388672 18.104084014892578
v -17.39311981201172 8.767450332641602 -11.557198524475098
v -2.715820550918579 -5.755037784576416 -14.738842964172363
v -2.715820550918579 -12.451728820800781 -5.570013046264648
v -2.71581768989563 1.4267195463180542 -17.290130615234375
v -2.7158172130584717 8.654642105102539 -26.918794631958008
v 11.961482048034668 8.767450332641602 -11.557202339172363
v 8.21218490600586 11.545699119567871 -25.552322387695312
v 17.66983985900879 11.015931129455566 -4.574644565582275
v 18.08666229248047 13.363994598388672 -10.510858535766602
v 15.338278770446777 3.8445637226104736 3.554241895675659
v -2.715820789337158 -11.067309379577637 3.2539987564086914
v -2.7158212661743164 -6.200405597686768 12.473433494567871
v -20.769912719726562 3.8445658683776855 3.5542402267456055
v -14.483284950256348 7.295248508453369 18.40387725830078
v -2.7158195972442627 0.9017958045005798 19.2316837310791
v 9.051650047302246 7.295247554779053 18.40388298034668
v -2.715818405151367 9.626091003417969 26.09577178955078
v 21.26487159729004 11.65576457977295 3.967050790786743
v 16.014001846313477 10.263401985168457 14.344931602478027
v 7.44179630279541 10.367973327636719 24.309677124023438
v -2.715818405151367 11.76059341430664 31.589542388916016
v 17.69841957092285 13.363994598388672 18.104089736938477
v 7.504454612731934 12.703353881835938 27.629629135131836
v 17.376314163208008 13.39844036102295 3.770528554916382
v 8.214179992675781 14.234763145446777 17.624771118164062
v -2.715818405151367 14.150038719177246 25.9279842376709
v -12.936091423034668 12.703353881835938 27.629621505737305
v -13.6458158493042 14.234763145446777 17.624767303466797
v -2.715817451477051 17.541784286499023 2.7519240379333496
v 6.9564595222473145 16.36956214904785 3.2439165115356445
v 8.602424621582031 15.583101272583008 -10.9901762008667
v 8.257695198059082 13.856673240661621 -27.88674545288086
v -2.7158172130584717 14.293075561523438 -32.628448486328125
v -2.7158172130584717 14.956337928771973 -27.205686569213867
v -14.053311347961426 11.323110580444336 -24.70709800720215
v -13.68932819366455 13.856671333312988 -27.886741638183594
v -14.034058570861816 15.583101272583008 -10.9901762008667
v -12.388093948364258 16.36956214904785 3.2439157962799072
v -22.807945251464844 13.39844036102295 3.7705235481262207
v -23.518295288085938 13.363994598388672 -10.510857582092285
v -24.279415130615234 11.015931129455566 -5.003669738769531
v -26.696504592895508 11.65576457977295 3.9670464992523193
vn -0.9504122138023376 -0.21199680864810944 0.2275388389825821
vn -0.7608128190040588 -0.4041183590888977 0.5077915191650391
vn -0.9085441827774048 0.3766067624092102 0.18087229132652283
vn -0.912753701210022 -0.30362561345100403 -0.2732986509799957
vn -3.806781592174957e-7 -0.5246518850326538 -0.8513168692588806
vn -5.906599653826561e-7 -0.992515504360199 -0.12211853265762329
vn -5.78968091247134e-8 -0.2909804880619049 -0.956728994846344
vn -0.0038462579250335693 -0.636246383190155 -0.7714763879776001
vn 0.932098925113678 -0.2565995752811432 -0.25563299655914307
vn 0.8671613931655884 -0.34301209449768066 -0.3610731363296509
vn 0.9592186808586121 -0.2206554114818573 -0.1766655147075653
vn 0.9679158329963684 0.21983426809310913 -0.12170363962650299
vn 0.97525954246521 -0.2203705906867981 0.017481857910752296
vn -3.294113071206084e-7 -0.9189815521240234 0.39430055022239685
vn -5.496937092175358e-7 -0.6659181714057922 0.7460247874259949
vn -0.972197413444519 -0.23356392979621887 0.016736358404159546
vn -0.8291784524917603 -0.35906505584716797 0.42841029167175293
vn -7.774274877192511e-7 -0.42784956097602844 0.9038499593734741
vn 0.8605239391326904 -0.300229549407959 0.41153469681739807
vn 0.04072830453515053 -0.6779249310493469 0.7340020537376404
vn 0.9995360374450684 0.03001287207007408 0.005185186862945557
vn 0.9404069781303406 -0.23909243941307068 0.24180473387241364
vn 0.7695873975753784 -0.4129173159599304 0.487067312002182
vn 0.04137991741299629 -0.08458862453699112 0.9955563545227051
vn 0.9218016862869263 0.34042003750801086 0.18546122312545776
vn 0.776991605758667 0.3556682765483856 0.5194074511528015
vn 0.8006821274757385 0.5987972021102905 0.018708106130361557
vn 0.48772501945495605 0.8473103642463684 0.21021276712417603
vn 1.3071550597487658e-7 0.9144638180732727 0.40466761589050293
vn -0.7444468140602112 0.41818878054618835 0.5204969644546509
vn -0.4877247214317322 0.8473106026649475 0.21021269261837006
vn 1.2316236563947314e-7 0.9986507296562195 0.05193031206727028
vn 0.6143646240234375 0.7861891388893127 0.06680388003587723
vn 0.5995429158210754 0.7940024733543396 -0.10054036974906921
vn 0.8453734517097473 0.3854123055934906 -0.3698663115501404
vn -0.012817831709980965 0.7090267539024353 -0.7050650715827942
vn -7.961877201978496e-8 0.9794432520866394 -0.2017199546098709
vn -0.8655796647071838 -0.35209423303604126 -0.35609203577041626
vn -0.8437396883964539 0.3805803954601288 -0.37849950790405273
vn -0.5995427370071411 0.7940025925636292 -0.10054045170545578
vn -0.614364504814148 0.7861891984939575 0.06680384278297424
vn -0.8006819486618042 0.5987975001335144 0.01870804838836193
vn -0.9564793109893799 0.26461270451545715 -0.12299370765686035
vn -0.974221408367157 -0.16567736864089966 -0.1531132608652115
vn -0.9984540343284607 0.0544939748942852 0.010950840078294277
vt -0.7182443141937256 0.11338984966278076
vt -0.18254530429840088 -0.13812732696533203
vt -0.8210422992706299 0.05011415481567383
vt -0.37165921926498413 0.8012441992759705
vt 0.7536212205886841 0.8636400103569031
vt 0.8371888399124146 0.6291601061820984
vt 0.6577785611152649 0.9288857579231262
vt 0.5673531293869019 1.175125241279602
vt 1.4770337343215942 0.7633046507835388
vt 1.214949131011963 1.1260557174682617
vt 1.799878716468811 0.5773580074310303
vt 1.7991533279418945 0.7286295294761658
vt 1.7439769506454468 0.37248659133911133
vt 0.8107532262802124 0.40349864959716797
vt 0.7364476323127747 0.16772490739822388
vt -0.5300436019897461 0.41915494203567505
vt -0.1939111351966858 0.03127163648605347
vt 0.6337359547615051 -0.005107402801513672
vt 1.288271188735962 0.0008535385131835938
vt 0.5087940692901611 -0.18064641952514648
vt 2.0102548599243164 0.35426992177963257
vt 1.6897022724151611 0.09565693140029907
vt 1.1399003267288208 -0.14809799194335938
vt 0.47496625781059265 -0.32114171981811523
vt 1.7502517700195312 -0.0026551485061645508
vt 1.109134316444397 -0.23308193683624268
vt 1.741743803024292 0.3643215298652649
vt 1.1414783000946045 0.021860718727111816
vt 0.44719070196151733 -0.1763554811477661
vt -0.1781696081161499 -0.20666325092315674
vt -0.23521971702575684 0.0501139760017395
vt 0.42070069909095764 0.41633927822113037
vt 1.0454201698303223 0.3912562131881714
vt 1.1719768047332764 0.7531454563140869
vt 1.1882678270339966 1.1856966018676758
vt 0.4952736794948578 1.3211417198181152
vt 0.4815872311592102 1.182462215423584
vt -0.18497061729431152 1.1332175731658936
vt -0.19391101598739624 1.214061975479126
vt -0.25362294912338257 0.7824021577835083
vt -0.1728605031967163 0.41625821590423584
vt -0.7889790534973145 0.41625815629959106
vt -0.8210421800613403 0.7824021577835083
vt -0.8416334390640259 0.6425473690032959
vt -1.0102548599243164 0.4162580966949463
g Geoset0
s 1
usemtl mat_durotarrocknew01
f 1/1/1 2/2/2 3/3/3
f 4/4/4 5/5/5 6/6/6
f 4/4/4 7/7/7 5/5/5
f 4/4/4 8/8/8 7/7/7
f 9/9/9 7/7/7 8/8/8
f 8/8/8 10/10/10 9/9/9
f 11/11/11 9/9/9 10/10/10
f 11/11/11 10/10/10 12/12/12
f 9/9/9 5/5/5 7/7/7
f 11/11/11 13/13/13 9/9/9
f 6/6/6 9/9/9 13/13/13
f 9/9/9 6/6/6 5/5/5
f 14/14/14 15/15/15 16/16/16
f 17/17/17 15/15/15 18/18/18
f 17/17/17 16/16/16 15/15/15
f 1/1/1 16/16/16 17/17/17
f 6/6/6 16/16/16 4/4/4
f 16/16/16 6/6/6 14/14/14
f 13/13/13 14/14/14 6/6/6
f 13/13/13 15/15/15 14/14/14
f 15/15/15 13/13/13 19/19/19
f 19/19/19 18/18/18 15/15/15
f 19/19/19 20/20/20 18/18/18
f 17/17/17 18/18/18 20/20/20
f 20/20/20 2/2/2 17/17/17
f 1/1/1 17/17/17 2/2/2
f 21/21/21 13/13/13 11/11/11
f 21/21/21 22/22/22 13/13/13
f 22/22/22 19/19/19 13/13/13
f 22/22/22 23/23/23 19/19/19
f 20/20/20 19/19/19 23/23/23
f 24/24/24 20/20/20 23/23/23
f 24/24/24 2/2/2 20/20/20
f 21/21/21 25/25/25 22/22/22
f 22/22/22 25/25/25 23/23/23
f 25/25/25 26/26/26 23/23/23
f 24/24/24 23/23/23 26/26/26
f 21/21/21 11/11/11 12/12/12
f 21/21/21 12/12/12 27/27/27
f 21/21/21 27/27/27 25/25/25
f 25/25/25 27/27/27 28/28/28
f 25/25/25 28/28/28 26/26/26
f 29/29/29 26/26/26 28/28/28
f 26/26/26 29/29/29 24/24/24
f 30/30/30 24/24/24 29/29/29
f 24/24/24 30/30/30 2/2/2
f 3/3/3 2/2/2 30/30/30
f 29/29/29 31/31/31 30/30/30
f 32/32/32 31/31/31 29/29/29
f 32/32/32 29/29/29 28/28/28
f 32/32/32 28/28/28 33/33/33
f 27/27/27 33/33/33 28/28/28
f 27/27/27 34/34/34 33/33/33
f 12/12/12 34/34/34 27/27/27
f 12/12/12 35/35/35 34/34/34
f 12/12/12 10/10/10 35/35/35
f 35/35/35 36/36/36 37/37/37
f 37/37/37 34/34/34 35/35/35
f 32/32/32 34/34/34 37/37/37
f 32/32/32 33/33/33 34/34/34
f 36/36/36 38/38/38 39/39/39
f 39/39/39 37/37/37 36/36/36
f 37/37/37 39/39/39 40/40/40
f 32/32/32 37/37/37 40/40/40
f 32/32/32 40/40/40 41/41/41
f 32/32/32 41/41/41 31/31/31
f 42/42/42 31/31/31 41/41/41
f 42/42/42 41/41/41 40/40/40
f 43/43/43 42/42/42 40/40/40
f 43/43/43 40/40/40 39/39/39
f 43/43/43 39/39/39 38/38/38
f 44/44/44 43/43/43 38/38/38
f 45/45/45 43/43/43 44/44/44
f 45/45/45 42/42/42 43/43/43
f 45/45/45 3/3/3 42/42/42
f 3/3/3 31/31/31 42/42/42
f 3/3/3 30/30/30 31/31/31
f 36/36/36 35/35/35 10/10/10
f 36/36/36 10/10/10 8/8/8
f 36/36/36 8/8/8 38/38/38
f 8/8/8 4/4/4 38/38/38
f 44/44/44 38/38/38 4/4/4
f 44/44/44 4/4/4 16/16/16
f 45/45/45 44/44/44 16/16/16
f 45/45/45 16/16/16 1/1/1
f 45/45/45 1/1/1 3/3/3